<svg width="150" height="150" viewBox="0 0 38 76" fill="none" xmlns="http://www.w3.org/2000/svg">
<path d="M0 17.8932H0.413717V6.5596C0.413716 5.69818 0.583385 4.8452 0.913034 4.04935C1.24268 3.25351 1.72586 2.53038 2.33497 1.92126C2.94409 1.31215 3.66721 0.828974 4.46305 0.499322C5.2589 0.169671 6.11189 6.59982e-07 6.97331 0H30.9851C31.8466 -1.75991e-06 32.6995 0.169666 33.4954 0.499315C34.2912 0.828963 35.0144 1.31214 35.6235 1.92125C36.2326 2.53037 36.7158 3.25349 37.0454 4.04933C37.3751 4.84518 37.5447 5.69816 37.5447 6.55958V68.7367C37.5447 69.5982 37.3751 70.4511 37.0454 71.247C36.7158 72.0428 36.2326 72.766 35.6235 73.3751C35.0144 73.9842 34.2912 74.4674 33.4954 74.797C32.6996 75.1267 31.8466 75.2963 30.9852 75.2963H6.97334C5.23362 75.2963 3.56516 74.6053 2.335 73.3751C1.10483 72.1449 0.413728 70.4765 0.413722 68.7368V25.9607H0V17.8932Z" fill="#3F3D56"/>
<path d="M6.70865 1.70658H9.84298C9.69885 2.05996 9.64383 2.44337 9.68277 2.82303C9.72171 3.20269 9.85343 3.56694 10.0663 3.8837C10.2792 4.20047 10.5667 4.46002 10.9035 4.63949C11.2403 4.81896 11.6161 4.91285 11.9978 4.91288H25.7538C26.1355 4.91285 26.5113 4.81896 26.8481 4.63949C27.1849 4.46002 27.4724 4.20047 27.6853 3.88371C27.8982 3.56694 28.0299 3.20269 28.0688 2.82303C28.1078 2.44337 28.0528 2.05996 27.9086 1.70657H30.8361C32.1353 1.70657 33.3813 2.22268 34.3 3.14135C35.2186 4.06002 35.7347 5.306 35.7347 6.6052V68.6911C35.7347 69.3344 35.608 69.9714 35.3619 70.5658C35.1157 71.1601 34.7549 71.7001 34.3 72.155C33.8451 72.6099 33.3051 72.9707 32.7107 73.2169C32.1164 73.4631 31.4794 73.5898 30.8361 73.5898H6.70865C6.06535 73.5898 5.42835 73.4631 4.83402 73.2169C4.23969 72.9707 3.69967 72.6099 3.24479 72.155C2.78991 71.7001 2.42908 71.1601 2.1829 70.5658C1.93672 69.9714 1.81001 69.3344 1.81001 68.6911V6.6052C1.81001 5.96191 1.93672 5.32491 2.1829 4.73058C2.42908 4.13625 2.78991 3.59623 3.24479 3.14135C3.69967 2.68647 4.23969 2.32564 4.83402 2.07946C5.42835 1.83328 6.06535 1.70658 6.70865 1.70658Z" fill="white"/>
<path d="M23.9416 19.1H13.6031V21.5948H23.9416V19.1Z" fill="#6C63FF"/>
<path d="M24.4338 29.8199H13.1109V32.3147H24.4338V29.8199Z" fill="#E5E5E5"/>
<path d="M31.4082 35.179H6.13654V37.6738H31.4082V35.179Z" fill="#E5E5E5"/>
<path d="M31.4082 40.5381H6.13654V43.0329H31.4082V40.5381Z" fill="#E5E5E5"/>
<path d="M18.7852 64.5629C22.7848 64.5629 26.0271 61.3206 26.0271 57.3211C26.0271 53.3215 22.7848 50.0792 18.7852 50.0792C14.7856 50.0792 11.5433 53.3215 11.5433 57.3211C11.5433 61.3206 14.7856 64.5629 18.7852 64.5629Z" fill="#6C63FF"/>
<path d="M18.095 60.3781L15.9277 57.591L17.1881 56.6107L18.2143 57.9303L21.6814 54.2703L22.8409 55.3687L18.095 60.3781Z" fill="white"/>
</svg>
